<?xml version="1.0" encoding="UTF-8"?>
<svg id="Layer_2" data-name="Layer 2" xmlns="http://www.w3.org/2000/svg" xmlns:xlink="http://www.w3.org/1999/xlink" viewBox="0 0 174.68 67.25">
  <defs>
    <style>
      .cls-1 {
        fill: url(#linear-gradient);
      }

      .cls-1, .cls-2, .cls-3 {
        stroke-width: 0px;
      }

      .cls-2 {
        fill: url(#linear-gradient-2);
      }

      .cls-3 {
        fill: url(#linear-gradient-3);
      }
    </style>
    <linearGradient id="linear-gradient" x1="-18.11" y1="19.07" x2="162.25" y2="86.03" gradientUnits="userSpaceOnUse">
      <stop offset="0" stop-color="#a16ae8"/>
      <stop offset=".34" stop-color="#03dac6"/>
      <stop offset=".66" stop-color="#f2a229"/>
      <stop offset="1" stop-color="#b19ff9"/>
    </linearGradient>
    <linearGradient id="linear-gradient-2" x1="-12.01" y1="2.65" x2="168.35" y2="69.61" xlink:href="#linear-gradient"/>
    <linearGradient id="linear-gradient-3" x1="-3.21" y1="-21.06" x2="177.15" y2="45.9" xlink:href="#linear-gradient"/>
  </defs>
  <g id="Layer_2-2" data-name="Layer 2">
    <g>
      <path class="cls-1" d="m27.4,50.61c-6.34,0-8.86-2.03-8.86-9.2V0H0v42c0,14.95,9.68,23.69,26.43,23.69h3v-15.08h-2.03Z"/>
      <path class="cls-2" d="m107.26,33.63c0,19.86-14.96,33.62-35.77,33.62s-35.77-13.76-35.77-33.62S50.55,0,71.49,0s35.77,13.88,35.77,33.62Zm-19.26,0c0-13.64-5.86-18.54-16.51-18.54s-16.51,4.91-16.51,18.54,5.74,18.54,16.51,18.54,16.51-4.79,16.51-18.54Z"/>
      <path class="cls-3" d="m174.68,46.67c0,15.19-15.08,20.58-30.27,20.58-17.83,0-27.52-6.94-30.87-21.18h17.59c1.2,4.55,3.23,7.06,12.68,7.06,8.14,0,11.84-1.32,11.84-5.26,0-4.55-1.8-5.38-12.08-7.42-11.73-2.27-27.76-6.22-27.76-20.82C115.81,6.11,129.21,0,144.77,0s26.32,6.94,29.31,19.86h-17.59c-1.68-4.07-3.59-5.74-11.13-5.74-8.02,0-10.77,1.67-10.77,5.38,0,3.47,2.63,4.79,13.16,6.82,12.32,2.39,26.92,6.1,26.92,20.34Z"/>
    </g>
  </g>
</svg>